<svg width="124" height="33" viewBox="0 0 124 33" fill="none" xmlns="http://www.w3.org/2000/svg">
<path d="M0 32.7743L-1.40002e-06 0.745651L121.604 0.745646C122.675 0.745646 123.437 1.78685 123.113 2.80789L118.993 15.8028C118.796 16.4256 118.796 17.0943 118.993 17.7172L123.113 30.712C123.437 31.7331 122.675 32.7743 121.604 32.7743L0 32.7743Z" fill="#E0EF2D"/>
<path d="M39.677 12.048V6.08566H42.8953V11.6753C42.8953 11.8944 42.9054 12.0886 42.9257 12.258C42.9483 12.4251 42.9799 12.5719 43.0206 12.6984C43.0635 12.8226 43.1166 12.9276 43.1798 13.0135C43.2453 13.0993 43.3198 13.1693 43.4034 13.2235C43.4892 13.2754 43.5852 13.3127 43.6914 13.3353C43.7998 13.3579 43.9183 13.3692 44.0471 13.3692C44.1758 13.3692 44.2932 13.3579 44.3994 13.3353C44.5078 13.3127 44.6038 13.2754 44.6873 13.2235C44.7732 13.1693 44.8477 13.0993 44.9109 13.0135C44.9764 12.9276 45.0295 12.8226 45.0701 12.6984C45.1131 12.5719 45.1447 12.4251 45.165 12.258C45.1876 12.0886 45.1989 11.8944 45.1989 11.6753V6.08566H48.4172V12.048C48.4172 12.4839 48.3664 12.8847 48.2647 13.2506C48.1653 13.6142 48.0231 13.9417 47.8379 14.233C47.6527 14.5221 47.4291 14.7762 47.1671 14.9952C46.9051 15.2143 46.6127 15.3973 46.2897 15.5441C45.9667 15.6886 45.6156 15.797 45.2361 15.8693C44.859 15.9415 44.4626 15.9777 44.0471 15.9777C43.6315 15.9777 43.234 15.9415 42.8546 15.8693C42.4774 15.797 42.1274 15.6886 41.8044 15.5441C41.4815 15.3973 41.189 15.2143 40.927 14.9952C40.665 14.7762 40.4414 14.5221 40.2563 14.233C40.0711 13.9417 39.9277 13.6142 39.826 13.2506C39.7266 12.8847 39.677 12.4839 39.677 12.048ZM50.0507 15.7744V6.08566H54.7765C55.384 6.08566 55.9362 6.16809 56.433 6.33296C56.9322 6.49557 57.3579 6.72593 57.7102 7.02405C58.0648 7.32216 58.3392 7.68013 58.5334 8.09794C58.7276 8.51575 58.8247 8.97987 58.8247 9.49028C58.8247 10.0007 58.7276 10.4659 58.5334 10.886C58.3392 11.3038 58.0648 11.6618 57.7102 11.9599C57.3556 12.258 56.9288 12.4884 56.4297 12.651C55.9328 12.8136 55.3817 12.8949 54.7765 12.8949H53.025L53.269 12.6171V15.7744H50.0507ZM53.1538 8.52479L53.269 8.37912V10.6861L53.0894 10.4558H54.6579C54.8137 10.4558 54.9504 10.4354 55.0678 10.3948C55.1852 10.3519 55.2835 10.2909 55.3625 10.2119C55.4438 10.1305 55.5048 10.03 55.5455 9.91035C55.5861 9.78839 55.6064 9.6495 55.6064 9.49366C55.6064 9.33557 55.5861 9.19668 55.5455 9.07698C55.5048 8.95502 55.4438 8.85339 55.3625 8.77209C55.2835 8.69078 55.1841 8.62981 55.0644 8.58915C54.947 8.54624 54.8115 8.52479 54.6579 8.52479H53.1538ZM67.5049 6.08566V8.66029H64.7609L64.9235 8.49769V15.7744H61.7052V8.49769L61.8678 8.66029H59.1238V6.08566H67.5049ZM67.602 10.93C67.602 10.4129 67.6573 9.92954 67.768 9.48011C67.8809 9.03068 68.0401 8.61964 68.2457 8.247C68.4534 7.8721 68.7041 7.53785 68.9977 7.24425C69.2913 6.95065 69.6199 6.70335 69.9835 6.50235C70.3471 6.30134 70.7412 6.14777 71.1658 6.04162C71.5927 5.93547 72.0421 5.8824 72.5141 5.8824C72.9861 5.8824 73.4344 5.93547 73.859 6.04162C74.2859 6.14777 74.6811 6.30134 75.0447 6.50235C75.4083 6.70335 75.7369 6.95065 76.0305 7.24425C76.3241 7.53785 76.5737 7.8721 76.7792 8.247C76.987 8.61964 77.1462 9.03068 77.2569 9.48011C77.3698 9.92954 77.4263 10.4129 77.4263 10.93C77.4263 11.4472 77.3698 11.9305 77.2569 12.38C77.1462 12.8294 76.987 13.2416 76.7792 13.6165C76.5737 13.9891 76.3241 14.3222 76.0305 14.6158C75.7369 14.9094 75.4083 15.1567 75.0447 15.3577C74.6811 15.5587 74.2859 15.7123 73.859 15.8185C73.4344 15.9246 72.9861 15.9777 72.5141 15.9777C72.0421 15.9777 71.5927 15.9246 71.1658 15.8185C70.7412 15.7123 70.3471 15.5587 69.9835 15.3577C69.6199 15.1567 69.2913 14.9094 68.9977 14.6158C68.7041 14.3222 68.4534 13.9891 68.2457 13.6165C68.0401 13.2416 67.8809 12.8294 67.768 12.38C67.6573 11.9305 67.602 11.4472 67.602 10.93ZM70.8542 10.93C70.8542 11.2101 70.8688 11.4653 70.8982 11.6957C70.9298 11.9238 70.9761 12.1281 71.0371 12.3088C71.0981 12.4895 71.1749 12.6465 71.2675 12.7797C71.3601 12.913 71.4673 13.0236 71.5893 13.1117C71.7112 13.1975 71.849 13.2619 72.0026 13.3048C72.1584 13.3477 72.3289 13.3692 72.5141 13.3692C72.6993 13.3692 72.8687 13.3477 73.0223 13.3048C73.1781 13.2619 73.317 13.1975 73.439 13.1117C73.5609 13.0236 73.6682 12.913 73.7608 12.7797C73.8534 12.6465 73.9302 12.4895 73.9912 12.3088C74.0521 12.1281 74.0973 11.9238 74.1267 11.6957C74.1583 11.4653 74.1741 11.2101 74.1741 10.93C74.1741 10.65 74.1583 10.3959 74.1267 10.1678C74.0973 9.93745 74.0521 9.73193 73.9912 9.55125C73.9302 9.37058 73.8534 9.21362 73.7608 9.08037C73.6682 8.94712 73.5609 8.83758 73.439 8.75176C73.317 8.66368 73.1781 8.59819 73.0223 8.55528C72.8687 8.51237 72.6993 8.49091 72.5141 8.49091C72.3289 8.49091 72.1584 8.51237 72.0026 8.55528C71.849 8.59819 71.7112 8.66368 71.5893 8.75176C71.4673 8.83758 71.3601 8.94712 71.2675 9.08037C71.1749 9.21362 71.0981 9.37058 71.0371 9.55125C70.9761 9.73193 70.9298 9.93745 70.8982 10.1678C70.8688 10.3959 70.8542 10.65 70.8542 10.93Z" fill="black"/>
<path d="M42.3752 27.7744L40.1578 23.9063V22.9947H40.897C41.1926 22.9947 41.4513 22.9536 41.673 22.8715C41.903 22.7812 42.0919 22.6539 42.2397 22.4896C42.3957 22.3254 42.5025 22.1283 42.56 21.8983H40.1578V20.9867H42.5477C42.4984 20.7732 42.4122 20.5843 42.289 20.4201C42.174 20.2558 42.018 20.1285 41.8209 20.0382C41.632 19.9396 41.402 19.8904 41.131 19.8904H40.1578V18.9788H45.7136V19.8904H43.7796C43.9192 20.0464 44.0341 20.2148 44.1245 20.3954C44.223 20.5761 44.2887 20.7732 44.3216 20.9867H45.7136V21.8983H44.3462C44.2641 22.5061 44.03 22.9824 43.6441 23.3273C43.2581 23.664 42.7612 23.894 42.1535 24.0172L44.568 27.7744H42.3752ZM51.0725 27.7744H48.0544C48.0893 27.216 48.1529 26.6975 48.2453 26.2192C48.3377 25.7408 48.465 25.2911 48.6272 24.8703C48.7915 24.4473 48.9927 24.0469 49.2308 23.6692C49.469 23.2893 49.7503 22.9198 50.0747 22.5605C50.4011 22.2012 50.7727 21.845 51.1895 21.4918C51.6084 21.1366 52.0785 20.7722 52.6 20.3985L52.9388 21.307H46.4991V18.9665H53.7919V21.3994C53.4798 21.73 53.2016 22.0482 52.9573 22.3541C52.713 22.658 52.4963 22.9629 52.3075 23.2688C52.1206 23.5747 51.9584 23.8878 51.8209 24.2081C51.6854 24.5284 51.5683 24.8703 51.4698 25.2337C51.3733 25.595 51.2932 25.9841 51.2296 26.4009C51.1659 26.8177 51.1136 27.2755 51.0725 27.7744ZM55.3958 25.3107L54.1147 30.1088H52.4516L52.9013 25.3107H55.3958ZM63.7293 24.6146C63.7293 25.1341 63.6379 25.6001 63.4552 26.0128C63.2725 26.4255 63.0087 26.7766 62.6637 27.0661C62.3209 27.3535 61.903 27.5742 61.4103 27.7282C60.9175 27.8802 60.3601 27.9561 59.738 27.9561C59.3418 27.9561 58.9691 27.9243 58.6201 27.8606C58.2731 27.7991 57.9549 27.7087 57.6654 27.5896C57.3759 27.4685 57.1172 27.3217 56.8893 27.1492C56.6614 26.9747 56.4684 26.7776 56.3103 26.5579C56.1543 26.3362 56.0342 26.0929 55.95 25.828C55.8679 25.5632 55.8268 25.2799 55.8268 24.978V24.9072H58.7186V24.9626C58.7186 25.0201 58.7299 25.0766 58.7525 25.132C58.7751 25.1854 58.8069 25.2347 58.848 25.2799C58.8911 25.325 58.9414 25.3671 58.9989 25.4061C59.0584 25.4431 59.1241 25.4749 59.196 25.5016C59.2699 25.5283 59.3489 25.5488 59.4331 25.5632C59.5173 25.5776 59.6066 25.5847 59.7011 25.5847C59.8612 25.5847 60.007 25.5632 60.1384 25.5201C60.2698 25.477 60.3827 25.4164 60.4771 25.3384C60.5716 25.2583 60.6445 25.1639 60.6958 25.055C60.7471 24.9442 60.7728 24.822 60.7728 24.6885C60.7728 24.6023 60.7615 24.5222 60.7389 24.4483C60.7184 24.3724 60.6876 24.3026 60.6465 24.2389C60.6075 24.1753 60.5582 24.1188 60.4987 24.0695C60.4412 24.0182 60.3755 23.9751 60.3016 23.9402C60.2297 23.9053 60.1497 23.8786 60.0614 23.8601C59.9752 23.8416 59.8817 23.8324 59.7811 23.8324C59.7072 23.8324 59.6333 23.8375 59.5594 23.8478C59.4875 23.8581 59.4167 23.8735 59.3469 23.894C59.2791 23.9145 59.2134 23.9402 59.1498 23.971C59.0882 23.9997 59.0307 24.0326 58.9773 24.0695C58.9239 24.1065 58.8747 24.1475 58.8295 24.1927C58.7843 24.2379 58.7453 24.2861 58.7125 24.3375H55.8791V18.9665H63.1472V21.307H58.7125V23.7677H58.7063C58.7412 23.585 58.7946 23.4146 58.8665 23.2565C58.9383 23.0963 59.0266 22.9495 59.1313 22.8161C59.236 22.6826 59.3572 22.5636 59.4947 22.4588C59.6343 22.3541 59.7883 22.2658 59.9567 22.194C60.1271 22.1201 60.3129 22.0636 60.5141 22.0246C60.7153 21.9856 60.9309 21.9661 61.1608 21.9661C61.438 21.9661 61.6947 21.9948 61.9308 22.0523C62.1669 22.1078 62.3794 22.1889 62.5683 22.2956C62.7592 22.4024 62.9265 22.5338 63.0703 22.6898C63.216 22.8438 63.3372 23.0193 63.4337 23.2165C63.5322 23.4115 63.6061 23.6271 63.6554 23.8632C63.7047 24.0972 63.7293 24.3477 63.7293 24.6146ZM64.0953 23.3704C64.0953 22.9003 64.1436 22.4609 64.2401 22.0523C64.3366 21.6437 64.4741 21.2701 64.6527 20.9313C64.8314 20.5905 65.048 20.2866 65.3026 20.0197C65.5571 19.7528 65.8415 19.528 66.1556 19.3453C66.4698 19.1625 66.8106 19.0229 67.1781 18.9264C67.5477 18.8299 67.9367 18.7817 68.3453 18.7817C68.7539 18.7817 69.1419 18.8299 69.5094 18.9264C69.879 19.0229 70.2208 19.1625 70.535 19.3453C70.8491 19.528 71.1335 19.7528 71.3881 20.0197C71.6426 20.2866 71.8593 20.5905 72.0379 20.9313C72.2165 21.2701 72.3541 21.6437 72.4506 22.0523C72.5471 22.4609 72.5953 22.9003 72.5953 23.3704C72.5953 23.8406 72.5471 24.28 72.4506 24.6885C72.3541 25.0971 72.2165 25.4718 72.0379 25.8126C71.8593 26.1514 71.6426 26.4542 71.3881 26.7212C71.1335 26.9881 70.8491 27.2129 70.535 27.3956C70.2208 27.5783 69.879 27.718 69.5094 27.8145C69.1419 27.9109 68.7539 27.9592 68.3453 27.9592C67.9367 27.9592 67.5477 27.9109 67.1781 27.8145C66.8106 27.718 66.4698 27.5783 66.1556 27.3956C65.8415 27.2129 65.5571 26.9881 65.3026 26.7212C65.048 26.4542 64.8314 26.1514 64.6527 25.8126C64.4741 25.4718 64.3366 25.0971 64.2401 24.6885C64.1436 24.28 64.0953 23.8406 64.0953 23.3704ZM67.0518 23.3704C67.0518 23.625 67.0631 23.857 67.0857 24.0664C67.1103 24.2738 67.1463 24.4596 67.1935 24.6239C67.2428 24.7881 67.3023 24.9308 67.3721 25.052C67.444 25.1731 67.5282 25.2737 67.6247 25.3538C67.7212 25.4318 67.8289 25.4903 67.948 25.5293C68.0692 25.5683 68.2016 25.5878 68.3453 25.5878C68.489 25.5878 68.6204 25.5683 68.7395 25.5293C68.8606 25.4903 68.9695 25.4318 69.066 25.3538C69.1625 25.2737 69.2456 25.1731 69.3154 25.052C69.3873 24.9308 69.4468 24.7881 69.494 24.6239C69.5433 24.4596 69.5792 24.2738 69.6018 24.0664C69.6265 23.857 69.6388 23.625 69.6388 23.3704C69.6388 23.1158 69.6265 22.8849 69.6018 22.6775C69.5792 22.4681 69.5433 22.2812 69.494 22.117C69.4468 21.9527 69.3873 21.8101 69.3154 21.6889C69.2456 21.5678 69.1625 21.4682 69.066 21.3902C68.9695 21.3101 68.8606 21.2506 68.7395 21.2116C68.6204 21.1726 68.489 21.153 68.3453 21.153C68.2016 21.153 68.0692 21.1726 67.948 21.2116C67.8289 21.2506 67.7212 21.3101 67.6247 21.3902C67.5282 21.4682 67.444 21.5678 67.3721 21.6889C67.3023 21.8101 67.2428 21.9527 67.1935 22.117C67.1463 22.2812 67.1103 22.4681 67.0857 22.6775C67.0631 22.8849 67.0518 23.1158 67.0518 23.3704ZM72.9615 23.3704C72.9615 22.9003 73.0097 22.4609 73.1062 22.0523C73.2027 21.6437 73.3403 21.2701 73.5189 20.9313C73.6975 20.5905 73.9142 20.2866 74.1687 20.0197C74.4233 19.7528 74.7077 19.528 75.0218 19.3453C75.336 19.1625 75.6768 19.0229 76.0443 18.9264C76.4138 18.8299 76.8029 18.7817 77.2115 18.7817C77.6201 18.7817 78.0081 18.8299 78.3756 18.9264C78.7452 19.0229 79.087 19.1625 79.4012 19.3453C79.7153 19.528 79.9997 19.7528 80.2542 20.0197C80.5088 20.2866 80.7254 20.5905 80.9041 20.9313C81.0827 21.2701 81.2202 21.6437 81.3167 22.0523C81.4132 22.4609 81.4615 22.9003 81.4615 23.3704C81.4615 23.8406 81.4132 24.28 81.3167 24.6885C81.2202 25.0971 81.0827 25.4718 80.9041 25.8126C80.7254 26.1514 80.5088 26.4542 80.2542 26.7212C79.9997 26.9881 79.7153 27.2129 79.4012 27.3956C79.087 27.5783 78.7452 27.718 78.3756 27.8145C78.0081 27.9109 77.6201 27.9592 77.2115 27.9592C76.8029 27.9592 76.4138 27.9109 76.0443 27.8145C75.6768 27.718 75.336 27.5783 75.0218 27.3956C74.7077 27.2129 74.4233 26.9881 74.1687 26.7212C73.9142 26.4542 73.6975 26.1514 73.5189 25.8126C73.3403 25.4718 73.2027 25.0971 73.1062 24.6885C73.0097 24.28 72.9615 23.8406 72.9615 23.3704ZM75.918 23.3704C75.918 23.625 75.9293 23.857 75.9519 24.0664C75.9765 24.2738 76.0125 24.4596 76.0597 24.6239C76.109 24.7881 76.1685 24.9308 76.2383 25.052C76.3102 25.1731 76.3943 25.2737 76.4908 25.3538C76.5873 25.4318 76.6951 25.4903 76.8142 25.5293C76.9353 25.5683 77.0678 25.5878 77.2115 25.5878C77.3552 25.5878 77.4866 25.5683 77.6057 25.5293C77.7268 25.4903 77.8356 25.4318 77.9321 25.3538C78.0286 25.2737 78.1118 25.1731 78.1816 25.052C78.2535 24.9308 78.313 24.7881 78.3602 24.6239C78.4095 24.4596 78.4454 24.2738 78.468 24.0664C78.4927 23.857 78.505 23.625 78.505 23.3704C78.505 23.1158 78.4927 22.8849 78.468 22.6775C78.4454 22.4681 78.4095 22.2812 78.3602 22.117C78.313 21.9527 78.2535 21.8101 78.1816 21.6889C78.1118 21.5678 78.0286 21.4682 77.9321 21.3902C77.8356 21.3101 77.7268 21.2506 77.6057 21.2116C77.4866 21.1726 77.3552 21.153 77.2115 21.153C77.0678 21.153 76.9353 21.1726 76.8142 21.2116C76.6951 21.2506 76.5873 21.3101 76.4908 21.3902C76.3943 21.4682 76.3102 21.5678 76.2383 21.6889C76.1685 21.8101 76.109 21.9527 76.0597 22.117C76.0125 22.2812 75.9765 22.4681 75.9519 22.6775C75.9293 22.8849 75.918 23.1158 75.918 23.3704Z" fill="black"/>
</svg>
