<svg xmlns="http://www.w3.org/2000/svg" xmlns:xlink="http://www.w3.org/1999/xlink" width="500" zoomAndPan="magnify" viewBox="0 0 375 374.999991" height="500" preserveAspectRatio="xMidYMid meet" version="1.0"><path fill="#ffffff" d="M 196.117188 210.03125 C 196.117188 210.03125 197.773438 162.003906 148.003906 173.085938 C 106.128906 182.410156 105.234375 246.769531 141.375 280.496094 C 148.195312 286.859375 156.308594 292.128906 165.722656 295.734375 C 167.5625 296.441406 169.4375 297.03125 171.332031 297.523438 C 230.820312 312.789062 318.296875 223.742188 270.207031 156.960938 C 220.589844 88.039062 128.996094 84.941406 86.304688 130.265625 C 50.339844 168.4375 61.664062 207.492188 55.292969 231.585938 C 54.105469 236.085938 52.3125 240.0625 49.46875 243.410156 C 36.777344 258.386719 17.347656 244.679688 14.878906 208.621094 C 13.828125 193.351562 15.824219 174.085938 22.648438 151.28125 C 45.609375 74.628906 119.695312 15.128906 206.148438 54.648438 C 292.609375 94.167969 361.191406 148.25 316.539062 254.210938 C 298.699219 296.546875 272.265625 323.90625 243.074219 338.285156 C 199.195312 359.90625 149.0625 352.179688 112.480469 321.777344 C 81.890625 296.339844 69.824219 267.433594 68.300781 238.972656 C 66.789062 210.75 75.636719 182.984375 87.074219 159.507812 C 110.027344 112.363281 167.71875 100.542969 216.363281 137.332031 C 265.019531 174.128906 250.945312 231.117188 215.8125 255.09375 C 180.683594 279.070312 152.640625 253.523438 150.085938 227.816406 C 147.53125 202.101562 177.46875 183.652344 196.117188 210.03125 Z M 196.117188 210.03125 " fill-opacity="1" fill-rule="nonzero"/></svg>